<?xml version="1.0" encoding="iso-8859-1"?>
<svg xmlns="http://www.w3.org/2000/svg" xmlns:xlink="http://www.w3.org/1999/xlink" version="1.1" viewBox="0 0 61.48 61.48" enable-background="new 0 0 61.48 61.48" width="512px" height="512px">
  <g>
    <g>
      <path d="m53.976,34.91l-6.901,6.899-1.693-1.693c-0.407-0.407-1.066-0.407-1.473,0-0.407,0.407-0.407,1.066 0,1.473l2.429,2.429c0.203,0.203 0.47,0.305 0.736,0.305 0.266,0 0.533-0.102 0.736-0.305l7.637-7.635c0.407-0.407 0.407-1.066 0-1.473-0.405-0.407-1.064-0.407-1.471-7.10543e-15z" fill="#5FA9D1"/>
    </g>
    <g>
      <path d="m27.734,21.436c0.195,0.195 0.46,0.305 0.736,0.305 0.277,0 0.541-0.11 0.736-0.305l8.38-8.382c0.407-0.407 0.407-1.066 0-1.473-0.407-0.407-1.066-0.407-1.473,0l-7.643,7.645-1.933-1.933c-0.407-0.407-1.066-0.407-1.473,0-0.407,0.407-0.407,1.066 0,1.473l2.67,2.67z" fill="#5FA9D1"/>
    </g>
    <g>
      <path d="m16.804,44.306c-0.407-0.407-1.066-0.407-1.473,0l-4.419,4.419-.903-.905c-0.407-0.407-1.066-0.407-1.473,0-0.407,0.407-0.407,1.066 0,1.473l1.64,1.642c0.195,0.195 0.46,0.305 0.736,0.305s0.541-0.11 0.736-0.305l5.155-5.155c0.408-0.408 0.408-1.067 0.001-1.474z" fill="#5FA9D1"/>
    </g>
    <g>
      <path d="m58.356,25.572h-0.316v-18.895c0-2.409-1.961-4.37-4.404-4.37h-48.595c-2.409,0-4.37,1.961-4.37,4.37v26.011c0,2.411 1.961,4.372 4.404,4.372h20.959l-.964,3.239c-0.498-0.335-1.097-0.532-1.741-0.532h-20.204c-1.723,0.001-3.125,1.402-3.125,3.125v9.478c0,1.723 1.402,3.125 3.125,3.125h20.205c1.723,0 3.125-1.402 3.125-3.125v-0.61h10.573v4.288c0,1.723 1.402,3.125 3.125,3.125h18.203c1.723,0 3.125-1.402 3.125-3.125v-27.351c-0.001-1.723-1.402-3.125-3.125-3.125zm1.041,3.125v23.385h-20.286v-9.696-2.921-9.698-1.07c0-0.574 0.468-1.042 1.042-1.042h18.203c0.573,0 1.041,0.468 1.041,1.042zm-22.37,10.768v2.921 2.153l-.806-.161c-0.869-0.173-1.564-0.84-1.774-1.703l-1.366-5.615h3.945v2.405zm-31.985-35.075h48.629c1.261-8.88178e-16 2.287,1.025 2.287,2.287v18.895h-15.805c-1.595,0-2.899,1.205-3.087,2.75h-34.31v-21.645c-2.66454e-15-1.262 1.025-2.287 2.286-2.287zm0,30.587c-1.261,0-2.287-1.027-2.287-2.289v-2.283h34.273v4.571h-31.986zm-2.958,17.395v-9.478c0-0.574 0.468-1.042 1.042-1.042h17.213v11.561h-17.213c-0.574,0-1.042-0.468-1.042-1.041zm22.289,0c0,0.574-0.468,1.042-1.042,1.042h-0.909v-11.562h0.909c0.574,0 1.042,0.468 1.042,1.042v9.478zm2.083-2.694v-6.785c0-0.144-0.024-0.282-0.043-0.421 0.139-0.124 0.266-0.268 0.323-0.459l1.474-4.952h2.73l1.484,6.107c0.401,1.646 1.731,2.923 3.389,3.253l1.215,.243v3.014h-10.572zm31.901,7.413h-18.204c-0.574,0-1.042-0.468-1.042-1.042v-1.884h20.287v1.884c0,0.574-0.468,1.042-1.041,1.042z" fill="#5FA9D1"/>
    </g>
  </g>
</svg>
