<?xml version="1.0" encoding="iso-8859-1"?>
<!-- Generator: Adobe Illustrator 19.0.0, SVG Export Plug-In . SVG Version: 6.00 Build 0)  -->
<svg version="1.1" id="Capa_1" xmlns="http://www.w3.org/2000/svg" xmlns:xlink="http://www.w3.org/1999/xlink" x="0px" y="0px"
	 viewBox="0 0 512 512" style="enable-background:new 0 0 512 512;" xml:space="preserve">
<circle style="fill:#005C83;" cx="256" cy="256" r="256"/>
<path style="fill:#00263F;" d="M512,256c0-6.118-0.229-12.182-0.651-18.192L379.825,106.284L117.188,393.999l116.5,117.022
	C241.043,511.656,248.481,512,256,512C397.385,512,512,397.385,512,256z"/>
<path style="fill:#F1333F;" d="M173.16,284.871c-14.968-25.282-79.453-137.354-79.453-137.354s45.487-82.185,161.785-86.78
	c0,0,115.148-5.172,176.176,110.341c-32.24,0-185.965,0-185.965,0L173.16,284.871z"/>
<path style="fill:#AE283F;" d="M255.667,60.731v110.348c34.562,0,148.732,0,176,0C371.944,58.036,260.412,60.57,255.667,60.731z"/>
<path style="fill:#FFB344;" d="M250.005,170.752c29.429-0.293,181.296,0.018,181.296,0.018s48.544,80.424-5.627,183.252
	c0,0-53.097,102.114-183.832,97.091c16.128-27.864,93.005-160.744,93.005-160.744L250.005,170.752z"/>
<path style="fill:#FF9451;" d="M431.301,170.77c0,0-136.238-0.279-175.634-0.06v8.024l79.18,111.635
	c0,0-51.677,89.321-79.18,136.853v24.011c120.657-2.342,170.007-97.211,170.007-97.211
	C479.845,251.194,431.301,170.77,431.301,170.77z"/>
<path style="fill:#FFB344;" d="M250.005,170.752l5.662,7.983v-8.024C253.471,170.723,251.558,170.736,250.005,170.752z"/>
<path style="fill:#60C344;" d="M242.29,451.297c0,0-94.043,1.752-156.16-96.499c0,0-62.041-96.966,7.69-207.469
	c16.115,27.876,92.95,160.781,92.95,160.781l134.992,5.847"/>
<path style="fill:#47AB4B;" d="M255.667,311.093v117.191c19.827-34.129,55.789-96.1,66.095-114.328L255.667,311.093z"/>
<circle style="fill:#FFFFFF;" cx="255.02" cy="257.59" r="88.5"/>
<path style="fill:#E0E0E0;" d="M343.52,257.587c0-48.66-39.275-88.141-87.853-88.487v176.974
	C304.245,345.728,343.52,306.247,343.52,257.587z"/>
<circle style="fill:#008CC3;" cx="254.99" cy="257.59" r="70.19"/>
<path style="fill:#0074A3;" d="M325.18,257.587c0-38.537-31.062-69.806-69.513-70.169v140.338
	C294.118,327.393,325.18,296.124,325.18,257.587z"/>
<g>
</g>
<g>
</g>
<g>
</g>
<g>
</g>
<g>
</g>
<g>
</g>
<g>
</g>
<g>
</g>
<g>
</g>
<g>
</g>
<g>
</g>
<g>
</g>
<g>
</g>
<g>
</g>
<g>
</g>
</svg>
