<?xml version="1.0" encoding="iso-8859-1"?>
<!-- Generator: Adobe Illustrator 19.0.0, SVG Export Plug-In . SVG Version: 6.00 Build 0)  -->
<svg version="1.1" id="Capa_1" xmlns="http://www.w3.org/2000/svg" xmlns:xlink="http://www.w3.org/1999/xlink" x="0px" y="0px"
	 viewBox="0 0 512.001 512.001" style="enable-background:new 0 0 512.001 512.001;" xml:space="preserve">
<circle style="fill:#FFDC00;" cx="256" cy="256" r="256"/>
<path style="fill:#FFC000;" d="M512,256c0-2.19-0.028-4.373-0.083-6.55L379.572,117.103L234.609,231.755L107.86,105.006
	l-6.194,16.661l23.711,264.298l125.977,125.977c1.547,0.028,3.093,0.059,4.646,0.059C397.385,512,512,397.385,512,256z"/>
<circle style="fill:#0E92CD;" cx="253.15" cy="252.16" r="185.01"/>
<path style="fill:#066F93;" d="M438.155,252.161c0-101.335-81.474-183.626-182.488-184.977v369.954
	C356.681,435.787,438.155,353.496,438.155,252.161z"/>
<path style="fill:#DE6926;" d="M129.564,141.332c0,0-19.301-15.633-21.703-36.326c0,0-24.681,25.463-19.916,69.177l20.504-8.574
	L129.564,141.332z"/>
<path id="SVGCleanerId_0" style="fill:#DA5F27;" d="M176.207,155.423l-1.277-1.825C174.929,153.598,175.136,154.382,176.207,155.423
	z"/>
<polygon style="fill:#DE6926;" points="191.558,160.004 259.059,174.182 196.978,225.779 "/>
<polygon style="fill:#FFECB3;" points="256.789,176.068 194.623,197.201 196.978,225.779 "/>
<g>
	<path id="SVGCleanerId_0_1_" style="fill:#DA5F27;" d="M176.207,155.423l-1.277-1.825
		C174.929,153.598,175.136,154.382,176.207,155.423z"/>
</g>
<path style="fill:#FF7F00;" d="M200.919,318.653c0,0,24.143,31.779,75.383,31.779c51.241,0,80.064-38.677,80.064-76.122
	c0,0,5.173,5.173,5.42,11.825c0,0,10.347-36.214,2.217-78.339c0,0,14.042,10.347,17.244,25.62c0,0,0.986-70.703-39.662-102.482
	c0,0,19.954,2.956,34.735,19.954c0,0-13.549-35.228-54.936-58.385c0,0,44.28,11.886,75.82,43.585
	c25.608,31.742,40.95,72.113,40.95,116.073c0,102.178-82.831,185.009-185.009,185.009S68.136,354.339,68.136,252.161
	c0-31.055,7.663-60.317,21.184-86.015c9.346-10.445,21.23-18.991,35.476-26.343c0,0,24.635-7.883,44.097-1.232
	c0,0,21.925-25.005,52.226-22.172c0,0-47.792,36.46-18.23,95.584c0,0,11.332,12.564,2.71,28.577c0,0-10.347-7.391-16.998-4.681
	s-16.998,24.389,6.898,37.692c0,0,34.81,12.323,68.116,8.253c33.257-4.065,31.04,25.128,13.303,27.345
	C259.132,311.392,200.919,318.653,200.919,318.653z"/>
<g>
	<path style="fill:#BC5900;" d="M276.918,309.169c17.737-2.217,19.954-31.41-13.303-27.345c-2.646,0.323-5.301,0.533-7.948,0.664
		v29.335C264.398,310.733,272.126,309.768,276.918,309.169z"/>
	<path style="fill:#BC5900;" d="M438.154,252.161c0-43.96-15.342-84.33-40.95-116.073c-31.54-31.699-75.82-43.585-75.82-43.585
		c41.387,23.157,54.936,58.385,54.936,58.385c-14.781-16.998-34.735-19.954-34.735-19.954
		c40.648,31.779,39.662,102.482,39.662,102.482c-3.202-15.274-17.244-25.62-17.244-25.62c8.13,42.126-2.217,78.339-2.217,78.339
		c-0.247-6.651-5.42-11.825-5.42-11.825c0,37.445-28.823,76.122-80.064,76.122c-7.455,0-14.319-0.688-20.635-1.837v88.544
		C356.681,435.788,438.154,353.496,438.154,252.161z"/>
</g>
<polygon style="fill:#BC4A11;" points="237.026,169.554 239.595,190.358 259.059,174.182 "/>
<polygon style="fill:#42210B;" points="255.667,173.47 255.667,177.001 259.059,174.182 "/>
<g>
</g>
<g>
</g>
<g>
</g>
<g>
</g>
<g>
</g>
<g>
</g>
<g>
</g>
<g>
</g>
<g>
</g>
<g>
</g>
<g>
</g>
<g>
</g>
<g>
</g>
<g>
</g>
<g>
</g>
</svg>
