<?xml version="1.0" encoding="iso-8859-1"?>
<!-- Generator: Adobe Illustrator 19.0.0, SVG Export Plug-In . SVG Version: 6.00 Build 0)  -->
<svg version="1.1" id="Capa_1" xmlns="http://www.w3.org/2000/svg" xmlns:xlink="http://www.w3.org/1999/xlink" x="0px" y="0px"
	 viewBox="0 0 512 512" style="enable-background:new 0 0 512 512;" xml:space="preserve">
<circle style="fill:#F7F7F7;" cx="256" cy="256" r="256"/>
<path style="fill:#D9D8DB;" d="M393.434,118.572c-0.002-0.002-0.005-0.005-0.007-0.007l-0.001-0.001
	C358.255,83.396,309.667,61.644,256,61.644C148.66,61.644,61.644,148.66,61.644,256c0,53.667,21.752,102.255,56.921,137.426
	l117.833,117.833C242.868,511.75,249.404,512,256,512c141.385,0,256-114.615,256-256c0-6.596-0.25-13.132-0.74-19.601
	L393.434,118.572z"/>
<circle style="fill:#497FC1;" cx="256" cy="256" r="194.352"/>
<g>
	<rect x="253.924" y="77.072" style="fill:#FFFFFF;" width="4.144" height="27.634"/>
	
		<rect x="239.401" y="77.045" transform="matrix(-0.995 0.0994 -0.0994 -0.995 490.0993 143.5561)" style="fill:#FFFFFF;" width="4.145" height="13.887"/>
	<rect x="253.924" y="407.297" style="fill:#FFFFFF;" width="4.144" height="27.634"/>
	
		<rect x="268.406" y="421.067" transform="matrix(-0.995 0.0994 -0.0994 -0.995 582.1638 827.0144)" style="fill:#FFFFFF;" width="4.145" height="13.887"/>
	
		<rect x="228.096" y="79.112" transform="matrix(-0.9877 0.1564 -0.1564 -0.9877 472.0373 148.7161)" style="fill:#FFFFFF;" width="4.144" height="27.633"/>
	
		<rect x="212.681" y="81.427" transform="matrix(-0.9672 0.2539 -0.2539 -0.9672 444.9073 119.317)" style="fill:#FFFFFF;" width="4.145" height="13.887"/>
	
		<rect x="279.749" y="405.275" transform="matrix(-0.9877 0.1564 -0.1564 -0.9877 625.7205 788.9497)" style="fill:#FFFFFF;" width="4.144" height="27.633"/>
	
		<rect x="295.148" y="416.677" transform="matrix(-0.9672 0.2539 -0.2539 -0.9672 692.2615 757.8922)" style="fill:#FFFFFF;" width="4.145" height="13.887"/>
	
		<rect x="202.903" y="85.155" transform="matrix(-0.9511 0.3089 -0.3089 -0.9511 430.4996 129.7863)" style="fill:#FFFFFF;" width="4.145" height="27.633"/>
	
		<rect x="186.962" y="89.943" transform="matrix(-0.9156 0.402 -0.402 -0.9156 401.0717 109.6036)" style="fill:#FFFFFF;" width="4.146" height="13.887"/>
	
		<rect x="304.947" y="399.218" transform="matrix(-0.9511 0.3089 -0.3089 -0.9511 726.61 711.0325)" style="fill:#FFFFFF;" width="4.145" height="27.633"/>
	
		<rect x="320.867" y="408.162" transform="matrix(-0.9156 0.402 -0.402 -0.9156 785.5137 665.3627)" style="fill:#FFFFFF;" width="4.146" height="13.887"/>
	
		<rect x="178.966" y="95.059" transform="matrix(-0.8911 0.4538 -0.4538 -0.8911 391.7701 123.7386)" style="fill:#FFFFFF;" width="4.145" height="27.633"/>
	
		<rect x="162.895" y="102.373" transform="matrix(-0.8414 0.5404 -0.5404 -0.8414 362.8481 112.1478)" style="fill:#FFFFFF;" width="4.145" height="13.887"/>
	
		<rect x="328.889" y="389.285" transform="matrix(-0.8911 0.4538 -0.4538 -0.8911 808.8112 612.1163)" style="fill:#FFFFFF;" width="4.145" height="27.633"/>
	
		<rect x="344.947" y="395.741" transform="matrix(-0.8414 0.5404 -0.5404 -0.8414 856.616 553.9743)" style="fill:#FFFFFF;" width="4.145" height="13.887"/>
	
		<rect x="156.88" y="108.592" transform="matrix(-0.809 0.5878 -0.5878 -0.809 359.4976 128.0054)" style="fill:#FFFFFF;" width="4.145" height="27.633"/>
	
		<rect x="141.069" y="118.419" transform="matrix(-0.7464 0.6654 -0.6654 -0.7464 333.4109 123.6869)" style="fill:#FFFFFF;" width="4.145" height="13.886"/>
	
		<rect x="350.979" y="375.732" transform="matrix(-0.809 0.5878 -0.5878 -0.809 867.6495 497.17)" style="fill:#FFFFFF;" width="4.145" height="27.633"/>
	
		<rect x="366.745" y="379.703" transform="matrix(-0.7464 0.6654 -0.6654 -0.7464 901.4124 429.8313)" style="fill:#FFFFFF;" width="4.145" height="13.886"/>
	
		<rect x="137.175" y="125.433" transform="matrix(-0.7071 0.7071 -0.7071 -0.7071 336.1749 139.2517)" style="fill:#FFFFFF;" width="4.144" height="27.634"/>
	
		<rect x="117.172" y="142.55" transform="matrix(-0.774 -0.6332 0.6332 -0.774 128.6058 335.1473)" style="fill:#FFFFFF;" width="13.887" height="4.144"/>
	
		<rect x="370.67" y="358.937" transform="matrix(-0.7071 0.7071 -0.7071 -0.7071 899.8867 372.7619)" style="fill:#FFFFFF;" width="4.144" height="27.634"/>
	
		<rect x="380.961" y="365.314" transform="matrix(-0.774 -0.6332 0.6332 -0.774 455.5135 897.3596)" style="fill:#FFFFFF;" width="13.887" height="4.144"/>
	
		<rect x="108.602" y="156.88" transform="matrix(-0.809 -0.5878 0.5878 -0.809 128.0233 359.5034)" style="fill:#FFFFFF;" width="27.633" height="4.145"/>
	
		<rect x="101.355" y="164.56" transform="matrix(-0.8635 -0.5044 0.5044 -0.8635 117.7645 365.1416)" style="fill:#FFFFFF;" width="13.888" height="4.146"/>
	
		<rect x="375.752" y="350.969" transform="matrix(-0.809 -0.5878 0.5878 -0.809 497.2117 867.6432)" style="fill:#FFFFFF;" width="27.633" height="4.145"/>
	
		<rect x="396.745" y="343.311" transform="matrix(-0.8635 -0.5044 0.5044 -0.8635 578.0571 847.2299)" style="fill:#FFFFFF;" width="13.888" height="4.146"/>
	
		<rect x="95.061" y="178.969" transform="matrix(-0.891 -0.454 0.454 -0.891 123.6942 391.7814)" style="fill:#FFFFFF;" width="27.633" height="4.145"/>
	
		<rect x="89.207" y="188.771" transform="matrix(-0.9318 -0.3631 0.3631 -0.9318 116.449 403.575)" style="fill:#FFFFFF;" width="13.888" height="4.146"/>
	
		<rect x="389.288" y="328.887" transform="matrix(-0.891 -0.454 0.454 -0.891 612.0145 808.8553)" style="fill:#FFFFFF;" width="27.633" height="4.145"/>
	
		<rect x="408.92" y="319.125" transform="matrix(-0.9318 -0.3631 0.3631 -0.9318 686.7258 771.4685)" style="fill:#FFFFFF;" width="13.888" height="4.146"/>
	
		<rect x="85.16" y="202.909" transform="matrix(-0.9511 -0.309 0.309 -0.9511 129.7732 430.5157)" style="fill:#FFFFFF;" width="27.634" height="4.146"/>
	
		<rect x="80.985" y="214.566" transform="matrix(-0.9771 -0.2128 0.2128 -0.9771 127.7432 447.0262)" style="fill:#FFFFFF;" width="13.887" height="4.145"/>
	
		<rect x="399.237" y="304.948" transform="matrix(-0.9511 -0.309 0.309 -0.9511 711.0286 726.6476)" style="fill:#FFFFFF;" width="27.634" height="4.146"/>
	
		<rect x="417.158" y="293.273" transform="matrix(-0.9771 -0.2128 0.2128 -0.9771 775.6399 674.1756)" style="fill:#FFFFFF;" width="13.887" height="4.145"/>
	
		<rect x="79.115" y="228.096" transform="matrix(-0.9877 -0.1564 0.1564 -0.9877 148.722 472.0378)" style="fill:#FFFFFF;" width="27.633" height="4.144"/>
	
		<rect x="76.883" y="241.366" transform="matrix(-0.9984 -0.0574 0.0574 -0.9984 153.5424 491.2871)" style="fill:#FFFFFF;" width="13.888" height="4.146"/>
	
		<rect x="405.279" y="279.745" transform="matrix(-0.9877 -0.1564 0.1564 -0.9877 788.9582 625.7133)" style="fill:#FFFFFF;" width="27.633" height="4.144"/>
	
		<rect x="421.247" y="266.517" transform="matrix(-0.9984 -0.0574 0.0574 -0.9984 840.2596 561.3132)" style="fill:#FFFFFF;" width="13.888" height="4.146"/>
	<rect x="77.072" y="253.924" style="fill:#FFFFFF;" width="27.634" height="4.144"/>
	
		<rect x="77.023" y="268.425" transform="matrix(-0.995 0.0994 -0.0994 -0.995 194.4063 531.3097)" style="fill:#FFFFFF;" width="13.887" height="4.145"/>
	<rect x="407.297" y="253.924" style="fill:#FFFFFF;" width="27.634" height="4.144"/>
	
		<rect x="421.046" y="239.419" transform="matrix(-0.995 0.0994 -0.0994 -0.995 877.8645 439.2433)" style="fill:#FFFFFF;" width="13.887" height="4.145"/>
	
		<rect x="79.092" y="279.77" transform="matrix(-0.9877 0.1564 -0.1564 -0.9877 228.7541 545.6859)" style="fill:#FFFFFF;" width="27.633" height="4.144"/>
	
		<rect x="81.416" y="295.156" transform="matrix(-0.9672 0.2539 -0.2539 -0.9672 249.291 562.2811)" style="fill:#FFFFFF;" width="13.887" height="4.145"/>
	
		<rect x="405.256" y="228.121" transform="matrix(-0.9877 0.1564 -0.1564 -0.9877 868.9903 392.0104)" style="fill:#FFFFFF;" width="27.633" height="4.144"/>
	
		<rect x="416.676" y="212.691" transform="matrix(-0.9672 0.2539 -0.2539 -0.9672 887.8862 314.9283)" style="fill:#FFFFFF;" width="13.887" height="4.145"/>
	
		<rect x="85.146" y="304.957" transform="matrix(-0.9511 0.309 -0.309 -0.9511 287.9525 568.4574)" style="fill:#FFFFFF;" width="27.634" height="4.146"/>
	
		<rect x="89.929" y="320.887" transform="matrix(-0.9156 0.4021 -0.4021 -0.9156 315.4315 579.7092)" style="fill:#FFFFFF;" width="13.887" height="4.146"/>
	
		<rect x="399.225" y="202.92" transform="matrix(-0.9511 0.309 -0.309 -0.9511 869.2123 272.3288)" style="fill:#FFFFFF;" width="27.634" height="4.146"/>
	
		<rect x="408.177" y="186.981" transform="matrix(-0.9156 0.4021 -0.4021 -0.9156 871.2211 195.2319)" style="fill:#FFFFFF;" width="13.887" height="4.146"/>
	
		<rect x="95.075" y="328.877" transform="matrix(-0.891 0.454 -0.454 -0.891 356.1646 576.3892)" style="fill:#FFFFFF;" width="27.633" height="4.145"/>
	
		<rect x="102.367" y="344.94" transform="matrix(-0.8414 0.5404 -0.5404 -0.8414 388.8129 579.9188)" style="fill:#FFFFFF;" width="13.887" height="4.145"/>
	
		<rect x="389.298" y="178.959" transform="matrix(-0.891 0.454 -0.454 -0.891 844.4793 159.3167)" style="fill:#FFFFFF;" width="27.633" height="4.145"/>
	
		<rect x="395.736" y="162.898" transform="matrix(-0.8414 0.5404 -0.5404 -0.8414 830.6466 86.1685)" style="fill:#FFFFFF;" width="13.887" height="4.145"/>
	
		<rect x="108.605" y="350.97" transform="matrix(-0.809 0.5878 -0.5878 -0.809 428.9806 566.6966)" style="fill:#FFFFFF;" width="27.633" height="4.145"/>
	
		<rect x="118.425" y="366.768" transform="matrix(-0.7465 0.6654 -0.6654 -0.7465 464.3795 560.7584)" style="fill:#FFFFFF;" width="13.887" height="4.145"/>
	
		<rect x="375.757" y="156.881" transform="matrix(-0.809 0.5878 -0.5878 -0.809 798.1743 58.555)" style="fill:#FFFFFF;" width="27.633" height="4.145"/>
	
		<rect x="379.7" y="141.075" transform="matrix(-0.7465 0.6654 -0.6654 -0.7465 770.5208 -7.2635)" style="fill:#FFFFFF;" width="13.887" height="4.145"/>
	
		<rect x="125.426" y="370.673" transform="matrix(-0.7071 0.7071 -0.7071 -0.7071 501.2732 537.8566)" style="fill:#FFFFFF;" width="27.634" height="4.144"/>
	
		<rect x="142.55" y="380.965" transform="matrix(-0.7741 -0.6331 0.6331 -0.7741 10.9917 779.7401)" style="fill:#FFFFFF;" width="4.145" height="13.888"/>
	
		<rect x="358.928" y="137.179" transform="matrix(-0.7071 0.7071 -0.7071 -0.7071 734.78 -25.8537)" style="fill:#FFFFFF;" width="27.634" height="4.144"/>
	
		<rect x="365.31" y="117.176" transform="matrix(-0.7741 -0.6331 0.6331 -0.7741 573.1874 452.7833)" style="fill:#FFFFFF;" width="4.145" height="13.888"/>
	
		<rect x="156.861" y="375.753" transform="matrix(-0.809 -0.5878 0.5878 -0.809 58.5221 798.1537)" style="fill:#FFFFFF;" width="4.145" height="27.633"/>
	
		<rect x="164.544" y="396.747" transform="matrix(-0.8634 -0.5045 0.5045 -0.8634 106.8107 836.2992)" style="fill:#FFFFFF;" width="4.145" height="13.887"/>
	
		<rect x="350.96" y="108.615" transform="matrix(-0.809 -0.5878 0.5878 -0.809 566.6729 428.9927)" style="fill:#FFFFFF;" width="4.145" height="27.633"/>
	
		<rect x="343.286" y="101.365" transform="matrix(-0.8634 -0.5045 0.5045 -0.8634 588.9025 376.0587)" style="fill:#FFFFFF;" width="4.145" height="13.887"/>
	
		<rect x="178.969" y="389.298" transform="matrix(-0.8911 -0.4538 0.4538 -0.8911 159.4338 844.4889)" style="fill:#FFFFFF;" width="4.145" height="27.633"/>
	
		<rect x="188.742" y="408.923" transform="matrix(-0.9317 -0.3633 0.3633 -0.9317 217.5121 872.6421)" style="fill:#FFFFFF;" width="4.146" height="13.888"/>
	
		<rect x="328.882" y="95.069" transform="matrix(-0.8911 -0.4538 0.4538 -0.8911 576.4575 356.101)" style="fill:#FFFFFF;" width="4.145" height="27.633"/>
	
		<rect x="319.097" y="89.22" transform="matrix(-0.9317 -0.3633 0.3633 -0.9317 585.4611 302.4354)" style="fill:#FFFFFF;" width="4.146" height="13.888"/>
	
		<rect x="202.912" y="399.213" transform="matrix(-0.9511 -0.3089 0.3089 -0.9511 272.3602 869.1788)" style="fill:#FFFFFF;" width="4.145" height="27.633"/>
	
		<rect x="214.543" y="417.133" transform="matrix(-0.977 -0.2131 0.2131 -0.977 337.8824 884.5741)" style="fill:#FFFFFF;" width="4.145" height="13.887"/>
	
		<rect x="304.948" y="85.145" transform="matrix(-0.9511 -0.3089 0.3089 -0.9511 568.4564 287.9225)" style="fill:#FFFFFF;" width="4.145" height="27.633"/>
	
		<rect x="293.268" y="80.987" transform="matrix(-0.977 -0.2131 0.2131 -0.977 565.1575 236.7803)" style="fill:#FFFFFF;" width="4.145" height="13.887"/>
	
		<rect x="228.111" y="405.256" transform="matrix(-0.9877 -0.1564 0.1564 -0.9877 391.9908 868.9888)" style="fill:#FFFFFF;" width="4.144" height="27.633"/>
	
		<rect x="241.356" y="421.244" transform="matrix(-0.9984 -0.0573 0.0573 -0.9984 461.9235 869.6199)" style="fill:#FFFFFF;" width="4.146" height="13.888"/>
	
		<rect x="279.768" y="79.092" transform="matrix(-0.9877 -0.1564 0.1564 -0.9877 545.6819 228.7538)" style="fill:#FFFFFF;" width="4.144" height="27.633"/>
	
		<rect x="266.518" y="76.894" transform="matrix(-0.9984 -0.0573 0.0573 -0.9984 531.9366 182.9274)" style="fill:#FFFFFF;" width="4.146" height="13.888"/>
</g>
<polygon style="fill:#DE3205;" points="387.18,123.291 236.208,236.208 274.264,274.264 "/>
<polygon style="fill:#FFFFFF;" points="123.291,387.18 236.208,236.208 274.264,274.264 "/>
<g>
</g>
<g>
</g>
<g>
</g>
<g>
</g>
<g>
</g>
<g>
</g>
<g>
</g>
<g>
</g>
<g>
</g>
<g>
</g>
<g>
</g>
<g>
</g>
<g>
</g>
<g>
</g>
<g>
</g>
</svg>
